<svg xmlns="http://www.w3.org/2000/svg" viewBox="0 0 485.83 227.69"><defs><style>.cls-1{fill:none;}.cls-2{fill:#b7b2b2;}.cls-3{fill:#1d1d1b;}.cls-4{fill:#fef5f5;}.cls-5{font-size:80px;fill:#f39200;font-family:Docktrin;}.cls-6{fill:#e30613;}</style></defs><g id="Capa_3" data-name="Capa 3"><path class="cls-1" d="M289.88,634.84" transform="translate(-45.23 -286.51)"/><rect class="cls-2" x="54.21" y="168.49" width="425.52" height="19.84"/><g id="Capa_2" data-name="Capa 2"><ellipse class="cls-3" cx="450.88" cy="22.42" rx="13.94" ry="22.42"/><path class="cls-3" d="M487.21,406.94c-3.81-4-6.86-7.2-8.78-9.19l-6.17,20,6.54,6.87,4.2,4.67,2.57,3.19,1.92,3.38L489,440l4.44,14.6,4.11,13.69a12.52,12.52,0,0,0,.84,2.33,8.18,8.18,0,0,0,2.71,3.5,4.74,4.74,0,0,0,4,.61,5.45,5.45,0,0,0,2.19-1.41,9.35,9.35,0,0,0,1.64-2.27A13,13,0,0,0,510,468.8a11.1,11.1,0,0,0,.7-2.82,12.79,12.79,0,0,0,0-2.7,23.85,23.85,0,0,0-.32-2.46c-.37-1.87-4-14.5-9.25-31.73L498.46,423a44.64,44.64,0,0,0-2-4.18C494.13,414.34,491.75,411.75,487.21,406.94Z" transform="translate(-45.23 -286.51)"/><path class="cls-3" d="M470.87,342.73,455,391.4l21.68,13.17,15.16-45.87,2.34,1.83,6,1.22,4.61-.25,3.19-.81,2.25-1.07,4-2.55,3.8-3.28a42,42,0,0,0,3.09-3.44,68.32,68.32,0,0,0,9.13-16.4,12.27,12.27,0,0,0,.66-2.4,13.91,13.91,0,0,0,0-4.12,11.87,11.87,0,0,0-2.3-5.6,8.39,8.39,0,0,0-3-2.29,4.12,4.12,0,0,0-2.22-.61,3.69,3.69,0,0,0-1.87.76c-2,1.5-3.68,5.07-4.75,7.16a35,35,0,0,1-4.81,7.45,15.13,15.13,0,0,1-5.91,4.46,11.22,11.22,0,0,1-5,.65,15.73,15.73,0,0,1-8.21-3.17l-4.07-3.51-3.25-2.8c-.35-.25-.88-.64-1.49-1.15a26.9,26.9,0,0,1-3.15-3.15c-2.23-2.56-5.47-3.95-7.89-5a21.44,21.44,0,0,0-6.83-1.9c-5.3-.45-9.37,1.79-11.6,3.05-6.16,3.48-9.5,8.6-14,15.49a41.12,41.12,0,0,0-5,12,13.79,13.79,0,0,0-.25,1.87,12.73,12.73,0,0,0,.46,4,10.86,10.86,0,0,0,1.46,3.22c.28.43,2.14,3.09,5,3.33a4.21,4.21,0,0,0,2.43-.44,6,6,0,0,0,1.84-1.66,19.91,19.91,0,0,0,2.26-4c.14-.28,1.28-2.53,2.61-4.68a32.12,32.12,0,0,1,2.48-3.59,17,17,0,0,1,4.48-4.24,11.83,11.83,0,0,1,4.92-1.69,13.44,13.44,0,0,1,2.94.06,16.63,16.63,0,0,1,2.1.41" transform="translate(-45.23 -286.51)"/><path class="cls-3" d="M456,390.4l-1.71,3.72-1.79,3.39-2.56,3.73c-.43.55-1,1.27-1.75,2.07-.49.55-1.11,1.23-1.86,1.93a17,17,0,0,1-2.95,2.21,11.64,11.64,0,0,1-5.89,1.59,8,8,0,0,1-5.55-1.63c-.39-.33-1-1-2.18-1.86a12.05,12.05,0,0,0-2.05-1.43,5.42,5.42,0,0,0-4.12-.2,7.74,7.74,0,0,0-3.76,3.73,13.67,13.67,0,0,0-1.41,4.51,16.08,16.08,0,0,0,.07,6.81,13.84,13.84,0,0,0,1.46,3.56,13.4,13.4,0,0,0,2.62,3.22,24.44,24.44,0,0,0,5.5,4,22.93,22.93,0,0,0,7.63,2.44,20.68,20.68,0,0,0,5.25,0,19.74,19.74,0,0,0,3-.61,23.35,23.35,0,0,0,3.92-1.52,30.59,30.59,0,0,0,5.71-3.66,36.71,36.71,0,0,0,4.71-4.65,46.92,46.92,0,0,0,4-5.42c.91-1.43,1.64-2.74,2.2-3.8a4.53,4.53,0,0,1,.77-.68c.33-.23.47-.24.56-.23a.8.8,0,0,1,.56.4l.57.27,1,.68,2.25,1.46,1.36,1.12,1.2,1,.52,1,4.39-14" transform="translate(-45.23 -286.51)"/><rect class="cls-3" x="370.01" y="9.54" width="46.94" height="8.63"/><path class="cls-3" d="M413.2,296.21" transform="translate(-45.23 -286.51)"/><path class="cls-3" d="M461.75,304.58a5,5,0,0,0,2,0,2.61,2.61,0,0,0,1.32-.49c1-.83,1.32-2.87,1.05-4.44a5.2,5.2,0,0,0-1.52-2.83,3.25,3.25,0,0,0-1.8-.74,3.45,3.45,0,0,0-.94,0" transform="translate(-45.23 -286.51)"/><rect class="cls-3" x="333.85" y="48.02" width="46.94" height="8.63"/><path class="cls-3" d="M377,334.69" transform="translate(-45.23 -286.51)"/><path class="cls-3" d="M425.58,343.06a5.18,5.18,0,0,0,2,0,2.79,2.79,0,0,0,1.33-.49c1-.84,1.31-2.88,1-4.44a5.11,5.11,0,0,0-1.52-2.84,3.33,3.33,0,0,0-1.8-.74,3,3,0,0,0-.94,0" transform="translate(-45.23 -286.51)"/><rect class="cls-3" x="347.19" y="100.54" width="46.94" height="8.63"/><path class="cls-3" d="M390.38,387.21" transform="translate(-45.23 -286.51)"/><path class="cls-3" d="M438.93,395.58a5,5,0,0,0,2,0,2.61,2.61,0,0,0,1.32-.49c1-.83,1.32-2.87,1.05-4.44a5.2,5.2,0,0,0-1.52-2.83,3.25,3.25,0,0,0-1.8-.74,3.45,3.45,0,0,0-.94,0" transform="translate(-45.23 -286.51)"/><path class="cls-3" d="M392.8,387.14a5.06,5.06,0,0,0-2,0,2.75,2.75,0,0,0-1.32.52c-1,.84-1.28,2.89-1,4.45a5.12,5.12,0,0,0,1.55,2.81,3.4,3.4,0,0,0,2.76.67" transform="translate(-45.23 -286.51)"/><path class="cls-3" d="M380.07,334.62a5.29,5.29,0,0,0-2,0,2.75,2.75,0,0,0-1.32.51c-1,.85-1.28,2.89-1,4.45a5.17,5.17,0,0,0,1.56,2.82,3.22,3.22,0,0,0,1.8.71,3.44,3.44,0,0,0,.95,0" transform="translate(-45.23 -286.51)"/><path class="cls-3" d="M416.24,296.15a4.91,4.91,0,0,0-2,0,2.65,2.65,0,0,0-1.32.51c-1,.84-1.28,2.89-1,4.45a5.08,5.08,0,0,0,1.55,2.81,3.3,3.3,0,0,0,1.81.72,3.41,3.41,0,0,0,1-.05" transform="translate(-45.23 -286.51)"/></g><rect class="cls-4" x="70.05" y="174.41" width="23.76" height="6.64"/><rect class="cls-4" x="188.89" y="174.41" width="23.76" height="6.64"/><rect class="cls-4" x="128.53" y="175.09" width="23.76" height="6.64"/><rect class="cls-4" x="452.94" y="175.09" width="23.76" height="6.64"/><rect class="cls-4" x="415.15" y="174.41" width="23.76" height="6.64"/><rect class="cls-4" x="368.91" y="175.09" width="23.76" height="6.64"/><rect class="cls-4" x="328.49" y="174.41" width="23.76" height="6.64"/><rect class="cls-4" x="282.43" y="174.41" width="23.76" height="6.64"/><rect class="cls-4" x="236.37" y="174.41" width="23.76" height="6.64"/></g><g id="Capa_1" data-name="Capa 1"><text class="cls-5" transform="translate(54.21 176.41)">RAPPI<tspan class="cls-6" x="192.56" y="0">DISIMO</tspan></text></g></svg>